<svg width="106" height="32" viewBox="0 0 106 32" fill="none" xmlns="http://www.w3.org/2000/svg">
<g clip-path="url(#clip0_11741_4145)">
<g clip-path="url(#clip1_11741_4145)">
<path fill-rule="evenodd" clip-rule="evenodd" d="M22.0286 12.3223C14.5532 13.5845 7.92979 18.0022 3.70772 24.3132C2.09165 26.6513 0.841382 29.222 0 31.9369C5.02041 10.268 14.3923 0 14.3923 0C14.3923 0 18.059 4.01696 22.0286 12.3223ZM23.0983 15.0739L23.275 15.0518C25.6276 20.5208 27.4739 26.194 28.7908 32.0001C28.7908 32.0001 22.6692 25.8531 15.4304 24.3606C14.7453 24.2218 14.0393 24.2218 13.3541 24.3606C6.25106 25.8247 0.227197 31.7634 0 31.9906C2.5501 27.0308 6.27718 22.7717 10.8549 19.5863C13.1014 18.0649 15.5625 16.8875 18.1568 16.0931C19.4472 15.7054 20.7631 15.4081 22.0949 15.2033C22.1957 15.19 22.2962 15.1758 22.3967 15.1616C22.6296 15.1288 22.8624 15.096 23.0983 15.0739Z" fill="#0EB0A4"/>
<path fill-rule="evenodd" clip-rule="evenodd" d="M55.6107 16.0016C55.6107 11.0285 58.8608 7.53223 63.5436 7.53223C68.2232 7.53223 71.4986 11.0285 71.4986 16.0016C71.4986 20.9747 68.2043 24.4678 63.5215 24.4678C58.8387 24.4678 55.6107 20.9747 55.6107 16.0016ZM58.6147 16.0016C58.6147 19.5042 60.5396 21.7131 63.5436 21.7131C66.5445 21.7131 68.4725 19.5074 68.4725 16.0016C68.4725 12.4958 66.5476 10.287 63.5436 10.287C60.5396 10.287 58.6147 12.499 58.6147 16.0016ZM39.6373 7.82251L47.321 19.4285V7.82251H50.1451V24.1996H47.321L39.6152 12.5968V24.1996H36.791V7.82251H39.6373ZM83.2592 17.2543C82.9437 18.0842 82.6092 19.094 82.2053 20.5266C81.8455 19.2044 81.5332 18.242 81.1734 17.2543L77.5888 7.82251H74.5437L80.7253 24.1996H83.682L89.7785 7.82251H86.7965L83.2592 17.2543ZM96.427 7.82251H99.3647L105.278 24.1996H102.252L100.93 20.413H94.8145L93.4923 24.1996H90.5135L96.427 7.82251ZM97.5282 12.7104L95.6696 17.999H100.116L98.2224 12.7104C98.0804 12.2983 97.9686 11.8765 97.888 11.4482C97.7933 11.8757 97.6732 12.2972 97.5282 12.7104Z" fill="#131C24"/>
</g>
</g>
<defs>
<clipPath id="clip0_11741_4145">
<rect width="105.278" height="32.0001" fill="white"/>
</clipPath>
<clipPath id="clip1_11741_4145">
<rect width="105.278" height="32.0001" fill="white"/>
</clipPath>
</defs>
</svg>
